<mxfile host="app.diagrams.net" modified="2024-05-06T13:24:43.689Z" agent="Mozilla/5.0 (Windows NT 10.0; Win64; x64) AppleWebKit/537.36 (KHTML, like Gecko) Chrome/124.0.0.0 Safari/537.36" version="24.3.1" etag="NDPWHwMRPD73vopY8axW" type="github">
  <diagram name="PÃ¡gina-1" id="Yp7pNy1CE1ZiCq-tde3i">
    <mxGraphModel>
      <root>
        <mxCell id="0" />
        <mxCell id="1" parent="0" />
      </root>
    </mxGraphModel>
  </diagram>
</mxfile>
